<?xml version="1.0" standalone="no"?>
<!DOCTYPE svg PUBLIC "-//W3C//DTD SVG 20010904//EN"
 "http://www.w3.org/TR/2001/REC-SVG-20010904/DTD/svg10.dtd">
<svg version="1.0" xmlns="http://www.w3.org/2000/svg"
 width="362.000000pt" height="362.000000pt" viewBox="0 0 362.000000 362.000000"
 preserveAspectRatio="xMidYMid meet">
<metadata>
Created by potrace 1.14, written by Peter Selinger 2001-2017
</metadata>
<g transform="translate(0.000000,362.000000) scale(0.100000,-0.100000)"
fill="#000000" stroke="none">
<path d="M1625 3532 c-40 -3 -178 -33 -190 -40 -5 -4 -15 -7 -22 -8 -35 -6
-178 -85 -195 -109 -4 -5 -8 -6 -8 -1 0 15 -156 -149 -185 -194 -49 -77 -74
-127 -68 -134 4 -3 2 -6 -4 -6 -6 0 -13 -8 -16 -17 -3 -10 -17 -52 -32 -93
-15 -41 -29 -84 -32 -95 -5 -24 -6 -26 -22 -85 -8 -25 -14 -49 -15 -55 -19
-84 -94 -285 -107 -285 -5 0 -9 -6 -9 -14 0 -7 -11 -30 -25 -50 -13 -20 -21
-36 -17 -36 4 0 2 -4 -5 -8 -6 -4 -13 -14 -15 -22 -2 -8 -11 -23 -20 -34 -10
-11 -18 -26 -18 -33 0 -7 -4 -13 -9 -13 -7 0 -19 -29 -25 -60 -1 -3 -5 -11 -9
-18 -21 -33 -4 -209 23 -247 7 -9 21 -76 25 -120 3 -26 -14 -76 -32 -97 -8 -9
-28 -20 -44 -23 -25 -6 -28 -9 -18 -27 6 -10 29 -28 52 -38 23 -10 37 -19 31
-19 -16 -1 -36 -114 -28 -158 9 -49 21 -72 55 -106 34 -32 53 -35 46 -7 -8 31
8 24 46 -21 48 -56 42 -82 -29 -125 -18 -11 -17 -13 11 -25 63 -26 128 -31
163 -13 20 10 27 10 38 -1 8 -7 14 -20 14 -27 0 -7 16 -24 35 -38 39 -29 44
-40 15 -40 -61 0 -156 -75 -177 -140 -26 -76 -52 -187 -77 -320 -3 -14 -7 -36
-10 -50 -3 -14 -11 -52 -16 -85 -6 -33 -15 -80 -20 -105 -5 -25 -12 -67 -15
-94 -3 -27 -8 -52 -9 -55 -2 -3 -7 -26 -10 -51 -3 -25 -8 -55 -10 -67 l-5 -23
1145 0 1145 0 -5 38 c-3 20 -7 48 -10 62 -3 13 -8 40 -11 60 -3 20 -8 47 -11
60 -3 14 -7 36 -10 50 -3 13 -12 56 -20 95 -9 38 -18 84 -21 100 -2 17 -11 57
-19 90 -8 33 -17 71 -19 85 -20 105 -61 230 -88 266 -29 38 -103 81 -135 78
-14 -2 -41 45 -48 82 -3 16 6 34 26 57 16 19 30 39 30 44 0 5 7 10 15 10 18 0
27 -26 25 -70 -3 -56 -4 -56 40 -45 53 14 104 66 120 122 7 25 21 52 31 62 18
16 35 68 30 93 -1 8 2 10 10 6 8 -5 10 -25 6 -60 -4 -40 -2 -52 9 -52 8 0 14
4 14 9 0 5 5 6 10 3 6 -3 10 -2 10 3 0 4 8 17 18 28 41 44 51 159 18 222 -19
36 -20 52 -6 52 6 0 22 7 35 16 l25 16 -50 48 c-80 73 -94 144 -49 244 11 25
20 49 20 53 0 5 4 13 8 18 5 6 12 24 16 40 5 17 9 35 11 40 9 30 20 115 16
119 -2 3 -6 20 -8 38 -6 71 -36 134 -106 230 -29 40 -60 84 -69 98 -22 36 -80
200 -74 210 3 5 2 10 -3 12 -4 1 -18 41 -31 88 -13 47 -28 91 -34 98 -5 6 -6
12 -1 12 4 0 3 5 -4 12 -7 7 -12 17 -12 24 0 7 -14 43 -32 81 -17 37 -31 71
-30 76 1 4 -2 7 -7 7 -5 0 -13 10 -17 22 -3 12 -10 26 -15 32 -73 92 -115 139
-162 179 -32 27 -57 45 -57 41 0 -4 -8 0 -17 8 -23 19 -86 52 -140 72 -92 34
-184 48 -282 44 -53 -3 -121 -2 -151 1 -30 3 -68 5 -85 3z m-513 -2467 c-2
-14 -8 -25 -13 -25 -5 0 -8 -5 -6 -11 4 -18 -40 -30 -53 -15 -8 11 -4 21 16
45 32 39 63 42 56 6z"/>
</g>
</svg>
